# xmcd
#
# Track frame offsets: 
#        150
#        13215
#        25085
#        34870
#        45793
#        56605
#        77953
#        88090
#        102605
#        122015
#        139988
#        153805
#        164640
#        179598
#
# Disc length: 2548 seconds
#
# Revision: 0
# Processed by: cddbd v1.5PL3 Copyright (c) Steve Scherf et al.
# Submitted via: ExactAudioCopy v0.95a2
#
DISCID=b909f20e
DTITLE=Demolition Doll Rods - Tasty
DYEAR=1997
DGENRE=Rock
TTITLE0=Motor City Dragway
TTITLE1=If You Can't Hang...
TTITLE2=Wild Child
TTITLE3=Doo Walka-Walka
TTITLE4=Maverick Girl
TTITLE5=Come Out of the Rain
TTITLE6=Queen Bee Drag Racin
TTITLE7=Psycho Kitty
TTITLE8=Raw
TTITLE9=Lil' Darlin'
TTITLE10=This Little Monkey
TTITLE11=Spoonful
TTITLE12=Spoiled Kitty (Bonus Track)
TTITLE13=Walkin' The Dog (Bonus Track)
EXTD=
EXTT0=
EXTT1=
EXTT2=
EXTT3=
EXTT4=
EXTT5=
EXTT6=
EXTT7=
EXTT8=
EXTT9=
EXTT10=
EXTT11=
EXTT12=
EXTT13=
PLAYORDER=
